<svg xmlns="http://www.w3.org/2000/svg" viewBox="0 0 325.2 268.3" preserveAspectRatio="none">
<g id="borda-destaque">
	<path d="M325,116.1c0-0.2,0-0.4-0.1-0.5c-0.5-0.3-0.5-1.3-0.7-2c-0.1-0.3-0.2-0.6,0-0.9c0-0.1,0-0.1,0-0.2
		c-0.1-1.8-0.4-3.6-0.7-5.4c-0.3-6,0.2-12.2-0.2-18.2c0-0.2,0-0.3,0-0.4c-0.1-0.1-0.1-0.3-0.1-0.4c-0.2-0.2-0.4-0.6-0.5-0.9
		c-0.6-2.5-0.2-5.4-0.3-7.9c0-6.4-0.4-12.9-0.4-19.2c-0.1-2.8,0.8-5.5,0.5-8.2c-0.3-0.6-0.4-1.4-0.3-2.2c0.1-2.3-0.8-4.5-0.1-6.8
		c0.1-0.5,0.1-1,0.4-1c0.1,0,0.3-0.5,0.3-0.9c0.2-2.5-0.2-5-0.7-7.3c0-4.1,0-8.2-0.1-12.3c0.1-3.7-0.8-7.4-0.2-11
		c0.4-2.4-0.1-5,0.1-7.3c-0.4,0-0.8,0.2-1.1-0.1c-3.7,0.1-7.4,0.3-11.1,0.2c-0.4-0.1-0.8-0.2-1-0.5c-0.6-0.8-1.5-0.9-2.3-1.1
		s-1.6-0.1-2.3-0.5c-1.3-0.6-2.7-0.3-4-0.8c-0.8,0.2-1.7-0.6-2.4-0.1c-0.2,0.7-0.9,0.7-1.4,1c-0.2,0.2-0.4,0.2-0.6,0h-0.1
		c-0.2,0.3-0.6,0.2-0.9,0.2c-1-0.1-1.8,0.8-2.8,0.9c-2.1,0.7-4.4-0.2-6.6-0.1c-1.7,0-3.4,0.1-5.1,0.4c-0.2,0-0.4,0.1-0.6-0.1
		c-0.1,0-0.2,0-0.3,0c-0.1,0.1-0.2,0.2-0.3,0.2c-0.1,0.3-0.3,0.5-0.6,0.8h-0.1c-1.4,1-3.2,0-4.8,0.5c-0.1,0-0.2,0-0.3-0.1
		c-0.3,0-0.5,0-0.8,0c-0.4,0.3-0.9,0.3-1.4,0c-2.6,0.3-5.5-0.2-8,0.4c-0.8,0.2-1.9,0.4-2.7,0.1c-1.1-0.1-1.6-0.1-2.7-0.5
		c-0.9,0-2-0.7-2.8-0.3c-0.4,0.4-0.9,0.5-1.5,0.5c-1.4-0.2-2.7,0.9-4,0.4c-0.4-0.3-1.2-0.1-1.3-0.8c0-0.2-0.3-0.4-0.6-0.4
		c-0.9,0.1-1.8-0.3-2.7,0.2c-0.6,0.2-1.3,0.3-1.8,0.8c-0.1,0.1-0.3,0.1-0.4,0.1c-2.7,0-5.5,0-8.2,0.1c-1.7,0.1-3.4,0.3-5.1,0.5
		c-0.7,0-1.6,0.3-2.2-0.2c-0.5-0.2-1.8-0.2-2.4-0.2c-0.5,0.2-1-0.3-1.5,0c-0.4,0.3-0.7,0.2-1-0.1c-1.8,0.1-3.7,0.3-5.5,0.2
		c-0.9-0.3-1.7,0.4-2.5,0.2c-0.4-0.1-0.6,0.6-1,0.4s-0.6-0.2-1-0.1c-0.2,0.1-0.4,0.1-0.5-0.2c-1.1-0.8-2.8-0.6-3.9-1.7
		c-1.3-1.3-3.1-0.3-4.6-0.8c-0.2,0-0.3,0-0.5-0.1c-0.5-0.4-1.1-0.4-1.8-0.3c-2.4,0.5-4.9,0.3-7.3,0.2c-0.8-0.4-1.7-0.1-2.5-0.2
		c-0.6-0.1-1-0.3-1.3-0.5c-1-0.8-2-0.1-3.1,0.2c-0.4,0.4-1,0.1-1.4-0.3l0,0c-0.2-0.2-0.3-0.3-0.6-0.3c-0.1,0.2-0.3,0.2-0.4,0.2
		c-0.1,0-0.1,0.1-0.2,0.1c-0.1,0-0.3,0-0.4,0c-0.2,0.3-0.6,0.1-0.9,0.2c-0.4,0.3-1,0.1-1.5,0.2c-0.1,0-0.1,0.1-0.2,0.1h-0.1
		c-0.1,0-0.1,0.1-0.2,0.1c-0.1,0-0.2,0-0.3,0c-0.1,0.2-0.3,0.2-0.5,0.2c-0.2,0.2-0.4,0.6-0.7,0.6c-0.1,0.1-0.1,0.1-0.2,0l0,0
		c-0.1-0.1-0.1-0.1-0.2-0.1c-0.6,0-1.1,0.1-1.7,0.3c-0.5,0.2-1.1-0.2-1.6-0.1c-0.7-0.4-1.6-0.4-2.3-0.8c-1.8,0.1-3.6,0.5-5.3-0.2
		c-1-0.5-2-0.4-3-0.1C164.6,2,164.3,2,164,1.7c-1.9-0.7-3.8,1.2-5.5,0.1c-1.2-0.5-2.5,0.6-3.7,0c0.3,0.1,0.2,0.1,0.1,0.1
		c-0.3-0.1-0.6,0.1-0.9,0.2c-0.2,0.2-0.7,0.3-0.9,0c-0.3,0-0.6-0.2-0.9-0.1c-0.4,0-0.7,0.2-1.1-0.1c-0.6,0-1.2-0.1-1.7-0.5
		c-0.3-0.2-0.5-0.2-0.8,0.1c-0.8,1.1-2.2,1.6-3.5,1.9c-1,0.3-2.1-0.2-3.1,0.4c-0.6,0.2-1.3,0.6-2,0.2c-0.2-0.1-0.4,0-0.4,0.2
		c-0.2,0.4-0.5,0.4-0.9,0.3c-1.2-0.6-2.5,0.3-3.6-0.5c-0.5-0.4-1.3,0.1-1.8-0.3l0,0c-0.1-0.1-0.2-0.2-0.3-0.3h-0.1
		c-0.1,0-0.1-0.1-0.2-0.1h-0.1c-0.3,0.2-0.7,0.2-1,0.5c-0.7,0.4-1.5-0.5-2.2,0.2c-1.5-0.5-3.1,0-4.6-0.3h-0.1
		c-0.2,0.2-0.3,0.2-0.5,0c-1.1-0.2-2.1-0.2-3.2-0.4c-1.2,0.6-2.3-0.5-3.5-0.4c-0.2,0-0.5,0-0.8,0c-0.6-0.2-1.3,0.6-1.9,0.3
		c-0.5-0.5-1.1,0.6-1.7,0.2l0,0c-1.7,0.1-3.4,0.2-5.1-0.2c-1-0.4-2.2,0.2-3.2-0.2c-3.7,0.1-7.4,0.3-11.1,0.2c-0.4-0.1-0.8-0.2-1-0.5
		c-0.6-0.8-1.5-0.9-2.3-1.1s-1.6-0.1-2.3-0.5c-1.3-0.6-2.7-0.3-4-0.8c-0.8,0.2-1.7-0.6-2.4-0.1c-0.2,0.7-0.9,0.7-1.4,1
		c-0.2,0.2-0.4,0.2-0.6,0h-0.1c-0.2,0.3-0.6,0.2-0.9,0.2c-1-0.1-1.8,0.8-2.8,0.9c-2.1,0.7-4.4-0.2-6.6-0.1c-1.7,0-3.4,0.1-5.1,0.4
		c-0.2,0-0.4,0.1-0.6-0.1c-0.1,0-0.2,0-0.3,0c-0.1,0.1-0.2,0.2-0.3,0.2c-0.1,0.3-0.3,0.5-0.6,0.8h-0.1c-1.4,1-3.2,0-4.8,0.5
		c-0.1,0-0.2,0-0.3-0.1c-0.3,0-0.5,0-0.8,0c-0.4,0.3-0.9,0.3-1.4,0c-2.6,0.3-5.5-0.2-8,0.4c-0.8,0.2-1.9,0.4-2.7,0.1
		c-1.1-0.1-1.6-0.1-2.7-0.5c-0.9,0-2-0.7-2.8-0.3c-0.4,0.4-0.9,0.5-1.5,0.5c-1.4-0.2-2.7,0.9-4,0.4c-0.4-0.3-1.2-0.1-1.3-0.8
		c0-0.2-0.3-0.4-0.6-0.4c-1.5-0.1-3.2-0.1-4.4,0.9c-0.1,0.1-0.3,0.1-0.4,0.1c-2.7,0-5.5,0-8.2,0.1c-1.7,0.1-3.4,0.3-5.1,0.5
		c-0.7,0-1.6,0.3-2.2-0.2c-0.3-0.3-1.6-0.3-2.2-0.2c-0.5,0.2-1-0.3-1.5,0C7,4.8,6.7,4.7,6.4,4.4c-2,0.1-4,0.3-6.1,0.1
		C0,9.8,0.7,14.9,0.5,20.1l0,0C0.8,21,0,21.9,0.4,22.7c0,1.4-0.2,2.8-0.3,4.1c0.4,3.3,0.3,6.7,0.5,10c0.1,0.2,0.1,0.5,0,0.7
		c0,0.1,0,0.1,0,0.2c0.2,3,0,6,0.1,8.9c0.3,1.1-0.6,2.2-0.3,3.3c0.3,0.5,0.3,1,0.3,1.6c-0.1,1.4,0.6,2.6,0.4,4
		c-0.4,1.4,0.6,3.1-0.1,4.3c-1.5,12.9-1,46.3-0.6,59.3c0,0.3-0.2,0.7-0.3,0.9c0.3,9.4-1,37.7,1.5,46.3c0.1,0.4,0.1,0.8,0.3,1
		c0.4,0.6-0.2,1.5,0.2,2.2c0.2,0.6-0.3,0.8-0.3,1.4c0.1,1.3-0.4,2.4-0.2,3.7c0.1,5.1-0.2,10.1-0.1,15.2c0.8,3.7-0.2,7.6-0.1,11.4
		c-0.1,4.1-0.1,8.2-0.1,12.3c-0.6,2.3-0.9,4.8-0.7,7.3c0,1.2,0.7,0.6,0.7,1.9c0.7,2.3-0.2,4.4-0.1,6.8c0,0.8,0,1.6-0.3,2.2
		c-0.3,2.7,0.6,5.4,0.5,8.2c0,6.4-0.4,12.8-0.4,19.2c0,1.8-0.1,3.8,0,5.6c0.6,0.1,1.2,0.3,1.8,0.3c1,0.4,2.2-0.2,3.2,0.2
		c3.7-0.1,7.4-0.4,11.1-0.2c0.4,0.1,0.8,0.2,1,0.5c0.6,0.9,1.5,0.9,2.3,1.2c0.8,0.2,1.6,0.1,2.3,0.5c1.3,0.6,2.7,0.3,4,0.8
		c0.8-0.2,1.7,0.7,2.4,0.1c0.2-0.8,0.9-0.8,1.4-1c0.2-0.2,0.4-0.2,0.6,0h0.1c0.2-0.3,0.6-0.2,0.9-0.2c1,0.1,1.8-0.8,2.8-0.9
		c3-0.7,6.3,0.5,9.4,0c0.7-0.3,1.5-0.2,2.2-0.4c0.2,0,0.4-0.1,0.6,0.1c0.1,0,0.2,0,0.3,0c0.1-0.1,0.2-0.2,0.3-0.2
		c0.1-0.3,0.3-0.6,0.6-0.8h0.1c1.4-1,3.2,0,4.8-0.6c0.1,0,0.2-0.1,0.3,0.1c0.3,0,0.5,0,0.8,0c0.4-0.3,0.9-0.3,1.4-0.1
		c2.6-0.3,5.5,0.2,8-0.5c0.8-0.2,1.9-0.4,2.7-0.1c0.1,0,0.2,0.1,0.3,0.1c0.9-0.3,1.6,0.2,2.4,0.4c0.9,0,2,0.8,2.8,0.3
		c0.4-0.4,0.9-0.5,1.5-0.5c1.4,0.3,2.7-0.9,4-0.4c0.4,0.3,1.2,0.1,1.3,0.9c0,0.2,0.3,0.4,0.6,0.4c0.9-0.1,1.8,0.3,2.7-0.2
		c0.6-0.2,1.3-0.3,1.8-0.8c2.8-0.3,5.8,0,8.7-0.2c1.9-0.1,3.2-0.3,5.1-0.5c0.7,0,1.6-0.4,2.2,0.2c0.1,0.1,0.2,0.2,0.3,0.2
		c0.7-0.1,1.4,0.2,2.2,0c0.5-0.2,1,0.3,1.5,0c0.4-0.3,0.7-0.2,1,0.1c1.8-0.1,3.6-0.3,5.5-0.2c0.9,0.3,1.7-0.4,2.5-0.2
		c0.4,0.1,0.6-0.7,1-0.4c0.4,0.2,0.6,0.2,1,0.1c0.2-0.1,0.4-0.1,0.5,0.2c1.1,0.9,2.8,0.6,3.9,1.7c1.3,1.3,3.1,0.3,4.6,0.8
		c0.2,0,0.3,0,0.5,0.1c0.5,0.4,1.1,0.5,1.8,0.3c2.4-0.5,4.9-0.3,7.3-0.2c0.8,0.4,1.7,0.1,2.5,0.2c0.6,0.1,1,0.3,1.3,0.6
		c1,0.9,2,0.1,3.1-0.2c0.4-0.4,1-0.1,1.4,0.3l0,0c0.2,0.2,0.3,0.3,0.6,0.3c0.1-0.2,0.3-0.2,0.4-0.2c0.1,0,0.1-0.1,0.2-0.2
		c0.1,0,0.3,0,0.4,0c0.2-0.3,0.6-0.1,0.9-0.2c0.4-0.3,1-0.1,1.5-0.2c0.1,0,0.1-0.1,0.2-0.2h0.1c0.1-0.1,0.1-0.1,0.2-0.2
		c0.1,0,0.2,0,0.3,0c0.1-0.2,0.3-0.2,0.5-0.2c0.2-0.2,0.4-0.7,0.7-0.6c0.1-0.1,0.1-0.1,0.2,0l0,0c0.1,0.1,0.1,0.1,0.2,0.2
		c0.6,0,1.1-0.1,1.7-0.3c0.5-0.2,1.1,0.2,1.6,0.1c0.7,0.4,1.6,0.4,2.3,0.9c1.8-0.1,3.6-0.5,5.3,0.2c1,0.5,2,0.4,3,0.1
		c0.3-0.1,0.6-0.1,0.9,0.2c1.9,0.7,3.8-1.3,5.5-0.1c1.2,0.6,2.5-0.6,3.7,0c0.1,0,0.1,0.1,0.2,0.1c0.1,0,0.3,0,0.4,0
		c0.1-0.1,0.3-0.2,0.5-0.2c0.2-0.2,0.7-0.3,0.9,0c0.2,0,0.4,0,0.6,0.1c0.5,0.1,0.9-0.2,1.4,0.1c0.6,0,1.2,0.1,1.7,0.5
		c0.3,0.3,0.5,0.2,0.8-0.1c0.8-1.1,2.2-1.6,3.5-2c1-0.3,2.1,0.2,3.1-0.4c0.6-0.2,1.3-0.6,2-0.2c0.2,0.1,0.4,0,0.4-0.2
		c0.2-0.4,0.5-0.5,0.9-0.3c1.2,0.6,2.5-0.3,3.6,0.5c0.5,0.5,1.3-0.1,1.8,0.3l0,0c0.1,0.1,0.2,0.2,0.3,0.3h0.1c0.1,0,0.1,0.1,0.2,0.1
		h0.1c0.3-0.2,0.7-0.3,1-0.5c0.7-0.4,1.5,0.5,2.2-0.2c1.5,0.5,3.1,0,4.6,0.3h0.1c0.2-0.2,0.3-0.2,0.5,0c1.1,0.2,2.1,0.2,3.2,0.4
		c1.2-0.6,2.3,0.5,3.5,0.4c0.3-0.2,0.6-0.2,0.9-0.2c0.6,0.2,1.3-0.6,1.9-0.3c0.5,0.5,1.1-0.6,1.7-0.2l0,0c1.7-0.1,3.4-0.2,5.1,0.2
		c1,0.4,2.2-0.2,3.2,0.2c3.7-0.1,7.4-0.4,11.1-0.2c0.4,0.1,0.8,0.2,1,0.5c0.6,0.9,1.5,0.9,2.3,1.2c0.8,0.2,1.6,0.1,2.3,0.5
		c1.3,0.6,2.7,0.3,4,0.8c0.8-0.2,1.7,0.7,2.4,0.1c0.2-0.8,0.9-0.8,1.4-1c0.2-0.2,0.4-0.2,0.6,0h0.1c0.2-0.3,0.6-0.2,0.9-0.2
		c1,0.1,1.8-0.8,2.8-0.9c3-0.7,6.3,0.5,9.4,0c0.7-0.3,1.5-0.2,2.2-0.4c0.2,0,0.4-0.1,0.6,0.1c0.1,0,0.2,0,0.3,0
		c0.1-0.1,0.2-0.2,0.3-0.2c0.1-0.3,0.3-0.6,0.6-0.8h0.1c1.4-1.1,3.2,0,4.8-0.6c0.1,0,0.2-0.1,0.3,0.1c0.3,0,0.5,0,0.8,0
		c0.4-0.3,0.9-0.3,1.4-0.1c2.6-0.3,5.5,0.2,8-0.5c0.8-0.2,1.9-0.4,2.7-0.1c0.1,0,0.2,0.1,0.3,0.1c0.9-0.3,1.6,0.2,2.4,0.4
		c0.9,0,2,0.8,2.8,0.3c0.4-0.4,0.9-0.5,1.5-0.5c1.4,0.3,2.7-0.9,4-0.4c0.4,0.3,1.2,0.1,1.3,0.9c0,0.2,0.3,0.4,0.6,0.4
		c0.9-0.1,1.8,0.3,2.7-0.2c0.6-0.2,1.3-0.3,1.8-0.8c2.8-0.3,5.8,0,8.7-0.2c1.9-0.1,3.2-0.3,5.1-0.5c0.7,0,1.6-0.4,2.2,0.2
		c0.1,0.1,0.2,0.2,0.3,0.2c0.7-0.1,1.4,0.2,2.2,0c0.5-0.2,1,0.3,1.5,0c0.4-0.3,0.7-0.2,1,0.1c1.1-0.1,2.1-0.3,3.2-0.1l0,0
		c0-0.1,0-0.3,0-0.4c-0.1-0.6-0.5-1.1-0.6-1.8c0-2.9-0.3-6,0.5-8.9c-0.6-4.2,0.6-8.2,0.2-12.3c0.2-2.2,0.3-4.5-0.2-6.7
		c-0.3-1.9,0.7-3.6,0.2-5.5c-0.4-1.6,0.3-3,0-4.5c-0.2-0.3-0.2-1,0-1.4c0.2-1.8,0-3.8,0.5-5.5c0.2-0.5,0.1-0.8-0.1-1.2
		c-1.7-2.9-1.1-6.6-1.6-9.8c-0.1-0.9-0.4-1.9-0.1-2.9c0.1-0.3,0-0.5-0.1-0.7c-0.7-1.2,0.3-2.9-0.1-4.3c-0.2-1.4,0.5-2.6,0.4-4
		c-0.1-0.6,0-1.1,0.3-1.6c0.3-1.1-0.6-2.2-0.3-3.3c0.1-2.9-0.1-6,0.1-8.9c0-0.1,0-0.1,0-0.2c-0.1-0.2-0.1-0.5,0-0.7
		c0.1-3.8,0.4-7.6,0.4-11.3c0.1-0.9-0.4-1.9-0.2-2.8c0.4-0.8-0.4-1.7-0.1-2.6l0,0c0.1-9.6,0.2-19.2,0.1-28.9
		C324.4,127.9,324.5,121.8,325,116.1L325,116.1z"/>
</g>
</svg>
