<svg xmlns="http://www.w3.org/2000/svg" viewBox="0 0 661.9 367.1" preserveAspectRatio="none">
<g id="borda-half">
	<path d="M661.9,158.7c0-0.3,0-0.6-0.2-0.7c-1-0.4-1-1.8-1.4-2.8c-0.3-0.4-0.3-0.8,0-1.3c0-0.1,0-0.2,0-0.3
		c-0.4-0.5-0.2-1.2-0.2-1.8c0.1-2-1-3.5-1.2-5.3c0-0.1,0-0.2,0-0.3c-0.2-0.2-0.2-0.5-0.2-0.8c-0.2-3-0.2-5.9,0.3-8.8
		c0.2-3.1,0-6.2,0-9.2c0-0.1,0-0.2,0-0.3c-0.3-1.4-0.3-3-0.5-4.4c-0.1-0.4-0.1-0.8,0.2-1.1c0-0.2,0-0.4,0-0.6
		c-0.2-0.1-0.2-0.4-0.2-0.6c-0.2-0.2-0.5-0.3-0.7-0.6c-0.1-0.1-0.1-0.2-0.2-0.3c-0.1-0.1-0.1-0.2-0.2-0.3c0-0.1,0-0.2,0-0.3
		c-0.7-1.5-0.8-3-0.6-4.8c0.2-1.7,0.1-3.4-0.2-5.1c0-0.3-0.1-0.5,0.1-0.7c0-0.3,0-0.6,0-0.9c0-0.2,0-0.4,0-0.6
		c-0.4-0.9-0.4-1.9-0.1-2.8c-0.2-4.9-0.1-9.7-0.3-14.6c0-0.6,0-1.2-0.3-1.8c-0.1-0.1-0.1-0.3-0.1-0.4c0-1.7-0.5-3.4,0.1-5.2
		c0.1-0.2,0.2-0.4,0.1-0.6c-0.4-1.8,0.3-3.3,0.5-4.9c0.2-1.5,0.3-2.9,0.6-4.4c0.1-0.5,0-0.9-0.2-1.3c-0.6-0.8-0.7-1.9-0.7-3
		c0.1-2.1-0.4-4-0.7-5.9c-0.3-1.3,0.2-2.2,0.5-3.4c0.1-0.7,0.2-1.4,0.9-1.4c0.3,0,0.6-0.6,0.6-1.2c0-1.2,0-2.4,0.1-3.5
		c0.1-0.7-0.3-1.3-0.4-1.9c-0.3-1.3-0.4-2.6-1.1-3.6c-0.2-0.2-0.2-0.6-0.1-0.9c0.3-1.4-0.2-2.8-0.1-4.3c0.1-4.8,0.2-9.7-0.3-14.5
		c0-0.1-0.1-0.3-0.1-0.5c0.5-2.7-0.5-5.3-0.4-8c0-1.4-0.5-3.2,0.3-4.5c0.1-0.1,0.2-0.4,0.2-0.5c-0.1-1.5,0.3-2.9,0-4.4
		c-0.1-0.5-0.1-1,0-1.5s0.1-1-0.1-1.5c-0.4-0.7-0.2-1.4,0.1-2h-0.1c-0.7-0.1-1.4,0.2-2-0.1c0,0-0.1,0-0.1-0.1c-0.4,0-0.8,0-1.2,0
		c-0.1,0-0.2,0-0.3,0s-0.2,0-0.3,0c-1.3,0.2-2.6,0.2-3.9,0.1c-2.8-0.2-5.6,0.3-8.3,0c-2.8,0.1-5.6,0.5-8.4,0.1
		c-0.8-0.1-1.6-0.3-2-0.7c-2.4-2-6.4-1.2-9.3-2.2c-2.6-0.8-5.5-0.4-8.1-1.1c-1.5,0.2-2.8-0.5-4.2-0.3c-0.3,0-0.6,0-0.7,0.2
		c-0.4,1-1.8,1-2.8,1.3c-0.4,0.3-0.8,0.3-1.3,0c-0.1,0-0.2,0-0.3,0c-0.5,0.3-1.2,0.2-1.8,0.2c-2-0.1-3.5,0.9-5.3,1.2
		c-0.1,0-0.2,0-0.3,0c-0.2,0.2-0.5,0.2-0.8,0.2c-3,0.2-5.9,0.2-8.8-0.3c-3.1-0.2-6.2,0-9.2,0c-0.1,0-0.2,0-0.3,0
		c-1.4,0.3-3,0.3-4.4,0.5c-0.4,0.1-0.8,0.1-1.1-0.2c-0.2,0-0.4,0-0.6,0c-0.1,0.2-0.4,0.2-0.6,0.2c-0.2,0.2-0.3,0.5-0.6,0.6
		c-0.1,0.1-0.2,0.1-0.3,0.2c-0.1,0.1-0.2,0.1-0.3,0.2c-0.1,0-0.2,0-0.3,0c-1.5,0.7-3,0.7-4.8,0.6c-1.7-0.2-3.4-0.1-5.1,0.1
		c-0.3,0-0.5,0.1-0.7-0.1c-0.3,0-0.6,0-0.9,0c-0.2,0-0.4,0-0.6,0c-0.9,0.4-1.9,0.4-2.8,0.1c-4.9,0.1-9.7,0.1-14.6,0.3
		c-0.6,0-1.2,0-1.8,0.3c-0.1,0.1-0.3,0.1-0.4,0.1c-2,0-3.7,0.5-5.7-0.2c-1.8,0.3-3.3-0.3-4.9-0.5c-1.5-0.2-2.9-0.3-4.4-0.6
		c-0.5-0.1-0.9,0-1.3,0.2c-0.8,0.6-1.9,0.7-3,0.6c-2.8-0.3-5.5,1.2-8.1,0.5c-0.4-0.1-0.8-0.2-1.1-0.3c-0.7-0.1-1.4-0.2-1.4-0.8
		c0-0.3-0.6-0.6-1.2-0.6c-1.8,0.1-3.7-0.4-5.4,0.2c-1.3,0.3-2.6,0.3-3.6,1.1c-0.9,0.8-1.3,0.9-1.5,0.8c-1.4-0.3-2.8,0.2-4.3,0.1
		c-4.9-0.1-10-0.2-14.9,0.3c-2.7-0.4-5.3,0.4-8,0.4c-1.4,0-3.2,0.5-4.5-0.3c-0.1-0.1-0.4-0.2-0.5-0.2c-1.5,0.1-2.9-0.3-4.4,0
		c-0.5,0.1-1,0.1-1.5,0s-1-0.1-1.5,0.1c-0.8,0.4-1.4,0.2-2.1-0.1c-1.9,0-3.8,0.5-5.7,0.2c-1.8-0.1-3.6,0.3-5.5,0
		c-1.8-0.4-3.3,0.4-4.8,0.4c-0.1,0-0.2,0-0.3,0c-0.9-0.1-1.2,0.9-2,0.6c-0.7-0.3-1.3-0.3-2-0.1c-0.4,0.1-0.8,0.1-1-0.2
		c-0.3-0.4-0.8-0.4-1.4-0.5c-2.3-0.4-4.7-0.7-6.5-1.7c-1.1-0.6-2.2-0.9-3.4-1c-0.5,0-1,0-1.5,0c-0.4,0-0.8,0-1.2,0
		c-0.1,0-0.2,0-0.3,0c-0.5,0-1,0-1.5,0c-0.1,0-0.2,0-0.3,0c-0.4,0-0.6-0.1-0.9-0.2c-0.3,0-0.7,0.1-0.9-0.2c-1.1-0.6-2.2-0.6-3.6-0.5
		c-2.5,0.4-5,0.6-7.6,0.3c-2.4,0.5-4.9-0.1-7.3-0.1c-1.6-0.6-3.4-0.1-5.1-0.2c-1.1-0.1-1.9-0.4-2.7-0.7c-1.3-0.6-2.6-0.7-4.1-0.3
		c-0.7,0.2-1.4,0.5-2.2,0.5c-0.5,0.3-1.1,0.3-1.7,0.1c-0.1,0-0.1,0-0.2-0.1c-0.2-0.1-0.4-0.1-0.6-0.2c-0.1-0.1-0.2-0.1-0.3-0.2l0,0
		c-0.1-0.1-0.2-0.1-0.3-0.2c-0.2-0.2-0.6-0.2-0.9-0.2c-0.5,0.2-0.7,0.2-1,0.2c-0.1,0-0.2,0-0.3,0c-0.1,0.1-0.2,0.1-0.3,0.2
		c-0.3,0-0.6,0-0.9,0c-0.5,0.4-1.2,0.1-1.9,0.2c-0.5,0.4-1.2,0.2-1.9,0.2c-0.1,0-0.2,0-0.3,0c-0.1,0-0.2,0-0.3,0c-0.2,0-0.4,0-0.6,0
		c-0.1,0.1-0.2,0.1-0.3,0.2c-0.1,0-0.2,0-0.3,0c-0.1,0.1-0.2,0.1-0.3,0.2c-0.2,0-0.4,0-0.6,0c-0.2,0.2-0.6,0.2-0.9,0.2
		c-0.1,0.1-0.2,0.1-0.3,0.2c-0.2,0.3-0.5,0.5-0.9,0.6c-0.1,0-0.2,0-0.3,0c-0.1,0.1-0.2,0.1-0.3,0l0,0C365.1,4,365,4,364.9,3.9
		c-1.2,0-2.3,0.1-3.4,0.4c-1.1,0.3-2.2-0.3-3.3-0.1c-1.5-0.6-3.3-0.6-4.7-1.1c-3.5,0.1-7.3,0.6-10.7-0.3c-2-0.6-4.1-0.5-6.1-0.1
		c-0.5,0.1-1,0.1-1.5-0.1c-0.1-0.1-0.2-0.1-0.3-0.2c-0.1,0-0.2,0-0.3,0c-2.5-0.4-4.8,0.1-7,0.6c-1.5,0.3-2.6,0-3.9-0.4
		c-2.4-0.8-4.9,0.9-7.3,0c-0.1,0-0.2,0-0.3,0c-0.1-0.1-0.2-0.1-0.3-0.2c-0.3,0-0.6,0-0.9,0c-0.3,0.1-0.6,0.2-0.9,0.2
		c-0.2,0.2-0.6,0.2-0.9,0.2c-0.1,0-0.2,0-0.3,0c-0.3,0-0.5,0-0.6-0.2c-0.1,0-0.2,0-0.3,0c-0.4,0-0.6-0.1-0.9-0.2c-0.2,0-0.4,0-0.6,0
		c-0.7,0-1.5,0.2-2.2-0.1c-1.3,0-2.4-0.2-3.4-0.7c-0.6-0.3-1.1-0.3-1.6,0.1c-2,1.6-4.5,2.1-7.1,2.6c-2.1,0.4-4.3-0.2-6.2,0.5
		c-1.3,0.3-2.6,0.8-4,0.2c-0.4-0.1-0.7,0-0.9,0.2c-0.4,0.6-1,0.6-1.8,0.4h-0.1c-2.3-0.8-5,0.5-7.2-0.6c-1.2,0.1-1.9,0.1-2.6,0.1
		c-0.5,0-1.1,0.2-1.5-0.2l0,0c-0.1-0.1-0.2-0.1-0.3-0.2c-0.1-0.1-0.2-0.1-0.3-0.2c-0.1,0-0.2,0-0.3,0c-0.1-0.1-0.2-0.1-0.3-0.2
		c-0.1,0-0.2,0-0.3,0c-0.7,0.2-1.4,0.3-2,0.7c-0.5,0.3-1,0.2-1.6,0.1c-1-0.2-2-0.3-2.9,0.2C261.3,4.9,258.6,5,256,5
		c-0.1,0-0.2,0-0.3,0c-0.4,0-0.9,0.1-1.3-0.2c-0.1,0-0.2,0-0.3,0c-0.3,0.3-0.6,0.3-1,0c-2.5-0.3-4.3-0.3-6.5-0.5
		c-2.5,0.8-4.7-0.6-7.1-0.5c-0.5,0.3-1.2,0.3-1.8,0.2c-1.1-0.2-2.3,0.4-3.4,0.5c-0.1,0-0.3-0.1-0.4-0.1c-1.1-0.7-2.3,0.8-3.5,0.2
		l0,0c-1.3-0.1-2.8,0-4.2,0.2c-2.1,0.3-4.1-0.4-6.1-0.4c-1.2-0.4-2.5-0.1-3.7-0.1c-0.2,0-0.4,0-0.6,0c-0.7-0.1-1.4,0.2-2-0.1
		c0,0-0.1,0-0.1-0.1c-0.4,0-0.8,0-1.2,0c-0.1,0-0.2,0-0.3,0s-0.2,0-0.3,0c-1.3,0.2-2.6,0.2-3.9,0.1c-2.8-0.2-5.6,0.3-8.3,0
		c-2.8,0.1-5.6,0.5-8.4,0.1c-0.8-0.1-1.6-0.3-2-0.7c-2.4-2-6.4-1.2-9.3-2.2c-2.6-0.8-5.5-0.4-8.1-1.1c-1.5,0.2-2.8-0.5-4.2-0.3
		c-0.3,0-0.6,0-0.7,0.2c-0.4,1-1.8,1-2.8,1.3c-0.4,0.3-0.8,0.3-1.3,0c-0.1,0-0.2,0-0.3,0c-0.5,0.3-1.2,0.2-1.8,0.2
		c-2-0.1-3.5,0.9-5.3,1.2c-0.1,0-0.2,0-0.3,0c-0.2,0.2-0.5,0.2-0.8,0.2c-3,0.2-5.9,0.2-8.8-0.3c-3.1-0.2-6.2,0-9.2,0
		c-0.1,0-0.2,0-0.3,0c-1.4,0.3-3,0.3-4.4,0.5c-0.4,0.1-0.8,0.1-1.1-0.2c-0.2,0-0.4,0-0.6,0c-0.1,0.2-0.4,0.2-0.6,0.2
		c-0.2,0.2-0.3,0.5-0.6,0.6c-0.1,0.1-0.2,0.1-0.3,0.2s-0.2,0.1-0.3,0.2c-0.1,0-0.2,0-0.3,0c-1.5,0.7-3,0.7-4.8,0.6
		c-1.7-0.2-3.4-0.1-5.1,0.1c-0.3,0-0.5,0.1-0.7-0.1c-0.3,0-0.6,0-0.9,0c-0.2,0-0.4,0-0.6,0c-0.9,0.4-1.9,0.4-2.8,0.1
		c-4.9,0.1-9.7,0.1-14.6,0.3c-0.6,0-1.2,0-1.8,0.3c-0.4,0.5-0.6,0.6-0.7,0.6c-2,0-3.7,0.5-5.7-0.2c-1.8,0.3-3.3-0.3-4.9-0.5
		c-1.5-0.2-2.9-0.3-4.4-0.6c-0.5-0.1-0.9,0-1.3,0.2c-0.8,0.6-1.9,0.7-3,0.6c-2.8-0.3-5.5,1.2-8.1,0.5c-0.4-0.1-0.8-0.2-1.1-0.3
		C66.7,5.8,66,5.7,66,5.1c0-0.3-0.6-0.6-1.2-0.6c-1.8,0.1-3.7-0.4-5.4,0.2c-1.4,0.4-2.8,0.5-3.7,1.2c-0.2,0.2-0.6,0.2-0.9,0.1
		c-1.4-0.3-2.8,0.2-4.3,0.1c-4.9-0.1-10-0.2-14.9,0.3c-2.7-0.4-5.3,0.4-8,0.4c-1.4,0-3.2,0.5-4.5-0.3c-0.1-0.1-0.4-0.2-0.5-0.2
		c-1.5,0.1-2.9-0.3-4.4,0c-0.5,0.1-1,0.1-1.5,0s-1-0.1-1.5,0.1c-0.8,0.4-1.4,0.2-2.1-0.1c-1.9,0-3.8,0.5-5.7,0.2
		C5.2,6.6,3,6.7,0.8,6.5c0,0.9,0,1.7-0.2,2.5c0,0.2,0,0.4,0,0.6c0,0.4,0,0.8,0,1.2c0,0,0,0.1,0.1,0.1c0.3,0.6,0,1.4,0.1,2
		c0,0.2,0,0.4,0,0.6c0.1,1.2-0.2,2.5,0.1,3.7c0,2,0.7,4.1,0.4,6.1C1,24.9,0.9,26.4,1,27.7l0,0c0.6,1.2-0.9,2.4-0.2,3.5
		c0.1,0.1,0.1,0.3,0.1,0.4c-0.1,1.2-0.7,2.3-0.5,3.4c0.1,0.6,0,1.2-0.2,1.8c-0.2,2.4,1.3,4.6,0.5,7.1c0.3,2.2,0.2,3.7,0.5,6.5
		c0.3,0.3,0.2,0.7,0,1c0,0.1,0,0.2,0,0.3c0.3,0.4,0.1,1,0.2,1.6c0,2.5-0.3,5,0.3,7.4c0,0.1,0,0.2,0,0.3c-0.5,0.9-0.4,1.9-0.2,2.9
		c0.1,0.6,0.2,1.1-0.1,1.6c-0.4,0.6-0.5,1.4-0.7,2c0,0.1,0,0.2,0,0.3c0.1,0.1,0.1,0.2,0.2,0.3c0,0.1,0,0.2,0,0.3
		c0,0.1,0.1,0.2,0.1,0.3c0.1,0.1,0.1,0.2,0.2,0.3c0.4,0.5,0.1,1,0.2,1.5c0,0.7,0,1.4,0.3,2.1c1.1,2.3-0.1,4.9,0.7,7.2v0.1
		c0.2,0.8,0.2,1.4-0.4,1.8c-0.3,0.2-0.4,0.5-0.2,0.9c0.8,2-0.5,3.8-0.7,5.7c0.2,3-0.1,6-1.1,8.6v54.9c0.3,1.2,0.4,2.5,0.8,3.6
		c-0.2,1.1,0.4,2.2,0.1,3.3s-0.4,2.3-0.4,3.4c0.1,0.1,0.1,0.2,0.2,0.3s0.1,0.2,0,0.3c0,0.1,0,0.2,0,0.3c-0.1,0.4-0.4,0.7-0.7,0.9
		l0,0v46.6c0.1,0.2,0.1,0.5,0.1,0.7c0.1,0.3,0.2,0.6,0.2,0.9c0,0.1,0,0.2,0,0.3c0,0.5,0,1,0,1.5c0,0.1,0,0.2,0,0.3
		c0,0.2,0,0.4,0,0.6c0,0.2,0,0.4,0,0.6c0,0.5,0,1,0,1.5c0.1,1.3,0.4,2.4,1,3.4c1.1,1.8,1.4,4.3,1.8,6.5c0.1,0.6,0.1,1.1,0.5,1.4
		c0.4,0.2,0.3,0.6,0.2,1c-0.2,0.7-0.2,1.3,0.1,2c0.3,0.8-0.7,1.1-0.6,2c0.1,0.6,0.1,1-0.1,1.5c-0.3,1.2-0.5,2.4-0.3,3.6
		c0.3,1.8-0.1,3.6,0,5.5c0.3,1.9-0.2,3.8-0.2,5.7c0.3,0.7,0.5,1.4,0.1,2.1c-0.2,0.5-0.2,1-0.1,1.5c0.1,0.5,0.1,1,0,1.5
		c-0.3,1.5,0.1,2.9,0,4.4c0,0.2,0.1,0.4,0.2,0.5c0.8,1.3,0.3,3.1,0.3,4.5c0,2.7-0.9,5.3-0.4,8c-0.1,0.8-0.3,1.5-0.2,2.4
		c-0.1,4.2-0.3,8.3-0.1,12.5c0.1,1.4-0.4,2.8-0.1,4.3c0.1,0.3,0,0.7-0.1,0.9c-0.8,1-0.9,2.3-1.1,3.6c-0.7,1.8-0.1,3.6-0.2,5.4
		c0,0.6,0.3,1.2,0.6,1.2c0.7,0.1,0.7,0.8,0.9,1.4c1.3,3-0.5,6.1-0.2,9.3c0.1,1.1-0.1,2.2-0.7,3c-0.3,0.4-0.3,0.8-0.2,1.3
		c0.3,1.4,0.4,2.9,0.6,4.4c0.2,1.6,0.9,3.2,0.5,4.9c0,0.2,0.1,0.4,0.1,0.6c0.6,1.7,0,3.4,0.1,5.2c0,0.1-0.1,0.3-0.1,0.4
		c-0.3,0.5-0.3,1.1-0.3,1.8c-0.2,4.9-0.2,9.7-0.3,14.6c0.3,0.9,0.3,1.9-0.1,2.8c0,0.2,0,0.4,0,0.6c0,0.3,0,0.6,0,0.9
		c0.2,0.2,0.1,0.4,0.1,0.7c-0.4,2.3-0.1,4.7-0.1,7c1.3,0.1,2.5,0.5,3.7,0.4c1.2,0.4,2.5,0.1,3.7,0.1c0.2,0,0.4,0,0.6,0
		c0.7,0.1,1.4-0.2,2,0.1c0,0,0.1,0,0.1,0.1c0.5,0,1,0,1.5,0c0.1,0,0.2,0,0.3,0c1.3-0.2,2.6-0.2,3.9-0.1c2.8,0.2,5.6-0.3,8.3,0
		c2.8-0.1,5.6-0.5,8.4-0.1c0.8,0.1,1.6,0.3,2,0.7c2.4,2.1,6.4,1.3,9.3,2.3c2.6,0.8,5.5,0.4,8.1,1.1c1.5-0.2,2.8,0.5,4.2,0.3
		c0.3,0,0.6,0,0.7-0.2c0.4-1,1.8-1,2.8-1.4c0.4-0.3,0.8-0.3,1.3,0c0.1,0,0.2,0,0.3,0c0.5-0.4,1.2-0.2,1.8-0.2c2,0.1,3.5-1,5.3-1.2
		c0.1,0,0.2,0,0.3,0c0.2-0.2,0.5-0.2,0.8-0.2c3-0.2,5.9-0.2,8.8,0.3c3.1,0.2,6.2,0,9.2,0c0.1,0,0.2,0,0.3,0c1.4-0.3,3-0.3,4.4-0.5
		c0.4-0.1,0.8-0.1,1.1,0.2c0.2,0,0.4,0,0.6,0c0.1-0.2,0.4-0.2,0.6-0.2c0.2-0.2,0.3-0.5,0.6-0.7c0.1-0.1,0.2-0.1,0.3-0.2
		c0.1-0.1,0.2-0.1,0.3-0.2c0.1,0,0.2,0,0.3,0c1.5-0.7,3-0.8,4.8-0.6c1.7,0.2,3.4,0.1,5.1-0.2c0.3,0,0.5-0.1,0.7,0.1c0.5,0,1,0,1.5,0
		c0.9-0.4,1.9-0.4,2.8-0.1c4.9-0.1,9.7-0.1,14.6-0.3c0.6,0,1.2,0,1.8-0.3c0.1-0.1,0.3-0.1,0.4-0.1c1.7,0,3.4-0.5,5.2,0.1
		c0.2,0.1,0.4,0.2,0.6,0.1c1.8-0.4,3.3,0.3,4.9,0.5c1.5,0.2,2.9,0.3,4.4,0.6c0.5,0.1,0.9,0,1.3-0.2c0.8-0.6,1.9-0.7,3-0.7
		c2.1,0.1,4-0.4,5.9-0.7c1.3-0.3,2.2,0.2,3.4,0.5c0.7,0.1,1.4,0.2,1.4,0.9c0,0.3,0.6,0.6,1.2,0.6c1.2,0,2.4,0,3.5,0.1
		c0.7,0.1,1.3-0.3,1.9-0.4c1.3-0.3,2.6-0.4,3.6-1.1c0.2-0.2,0.6-0.2,0.9-0.1c1.4,0.3,2.8-0.2,4.3-0.1c4.8,0.1,9.7,0.2,14.5-0.3
		c0.1,0,0.3-0.1,0.5-0.1c2.7,0.5,5.3-0.5,8-0.4c1.1,0,2.2-0.3,3.3-0.1c0.4,0.1,0.9,0.1,1.2,0.4c0.1,0.1,0.4,0.2,0.5,0.2
		c1.5-0.1,2.9,0.3,4.4,0c0.5-0.1,1-0.1,1.5,0s1,0.1,1.5-0.1c0.8-0.4,1.4-0.2,2.1,0.1c1.9,0,3.8-0.5,5.7-0.2c1.8,0.1,3.6-0.3,5.5,0
		c1.2,0.2,2.4,0,3.6-0.3c0.5-0.2,0.9-0.2,1.5-0.1c0.9,0.1,1.2-0.9,2-0.6c0.7,0.3,1.3,0.3,2,0.1c0.4-0.1,0.8-0.1,1,0.2
		c0.3,0.4,0.8,0.4,1.4,0.5c2.3,0.5,4.7,0.7,6.5,1.8c1.1,0.6,2.2,0.9,3.4,1c0.5,0,1,0,1.5,0c0.2,0,0.4,0,0.6,0c0.2,0,0.4,0,0.6,0
		c0.1,0,0.2,0,0.3,0c0.5,0,1,0,1.5,0c0.1,0,0.2,0,0.3,0c0.4,0,0.6,0.1,0.9,0.2c0.3,0,0.7-0.1,0.9,0.2c1.1,0.6,2.2,0.6,3.6,0.5
		c2.5-0.4,5-0.6,7.6-0.3c2.4-0.5,4.9,0.1,7.3,0.1c1.6,0.6,3.4,0.1,5.1,0.2c1.1,0.1,1.9,0.4,2.7,0.8c2.1,1.2,4.1,0.1,6.2-0.2
		c0.5-0.3,1.1-0.3,1.7-0.1c0.1,0,0.1,0,0.2,0.1c0.2,0.1,0.4,0.1,0.6,0.2c0.1,0.1,0.2,0.1,0.3,0.2l0,0c0.1,0.1,0.2,0.1,0.3,0.2
		c0.2,0.2,0.6,0.2,0.9,0.2c0.1-0.2,0.4-0.2,0.6-0.2c0.1,0,0.2,0,0.3,0c0.1-0.1,0.2-0.1,0.3-0.2c0.3,0,0.6,0,0.9,0
		c0.5-0.4,1.2-0.2,1.9-0.3c0.5-0.4,1.2-0.2,1.9-0.2c0.1,0,0.2,0,0.3,0c0.1,0,0.2,0,0.3,0c0.2,0,0.4,0,0.6,0c0.1-0.1,0.2-0.1,0.3-0.2
		c0.1,0,0.2,0,0.3,0c0.1-0.1,0.2-0.1,0.3-0.2c0.2,0,0.4,0,0.6,0c0.2-0.2,0.6-0.2,0.9-0.3c0.1-0.1,0.2-0.1,0.3-0.2
		c0.2-0.3,0.5-0.5,0.9-0.7c0.1,0,0.2,0,0.3,0c0.1-0.1,0.2-0.1,0.3,0l0,0c0.1,0.1,0.2,0.1,0.3,0.2c1.2,0,2.3-0.1,3.4-0.4
		s2.2,0.3,3.3,0.1c1.5,0.6,3.3,0.6,4.7,1.2c3.6-0.1,7.3-0.7,10.7,0.3c2,0.7,4.1,0.6,6.1,0.1c0.5-0.1,1-0.2,1.5,0.1
		c0.1,0.1,0.2,0.1,0.3,0.2c0.1,0,0.2,0,0.3,0c2.5,0.4,4.8-0.1,7-0.6c1.5-0.4,2.6,0,3.9,0.4c2.4,0.8,4.9-0.9,7.3,0c0.1,0,0.2,0,0.3,0
		c0.1,0.1,0.2,0.1,0.3,0.2c0.3,0,0.6,0,0.9,0c0.3-0.1,0.6-0.2,0.9-0.2c0.2-0.3,0.6-0.2,0.9-0.2c0.1,0,0.2,0,0.3,0
		c0.3,0,0.5,0,0.6,0.2c0.1,0,0.2,0,0.3,0c0.4,0,0.6,0.1,0.9,0.2c0.2,0,0.4,0,0.6,0c0.7,0,1.5-0.2,2.2,0.2c1.3,0,2.4,0.2,3.4,0.7
		c0.6,0.3,1.1,0.3,1.6-0.1c1.9-1.7,4.5-2.2,7.1-2.7c2.2-0.4,4.3,0.2,6.2-0.5c1.3-0.3,2.6-0.8,4-0.2c0.4,0.2,0.7,0,0.9-0.2
		c0.4-0.6,1-0.6,1.8-0.4h0.1c2.3,0.8,5-0.5,7.2,0.7c0.6,0.3,1.4,0.3,2.1,0.3c0.5,0,1.1-0.2,1.5,0.2l0,0c0.1,0.1,0.2,0.1,0.3,0.2
		c0.1,0.1,0.2,0.1,0.3,0.2c0.1,0,0.2,0,0.3,0c0.1,0.1,0.2,0.1,0.3,0.2c0.1,0,0.2,0,0.3,0c0.7-0.3,1.4-0.3,2-0.7
		c0.5-0.3,1-0.2,1.6-0.1c1,0.2,2,0.3,2.9-0.2c0.1,0,0.2,0,0.3,0c2.4,0.6,5,0.3,7.4,0.3c0.1,0,0.2,0,0.3,0c0.4,0,0.9-0.1,1.3,0.2
		c0.1,0,0.2,0,0.3,0c0.3-0.3,0.6-0.3,1,0c0.3,0,0.6,0,0.9,0c1.8,0.4,3.8,0.2,5.6,0.5c2.5-0.8,4.7,0.7,7.1,0.5
		c0.5-0.3,1.2-0.3,1.8-0.2c1.1,0.2,2.3-0.4,3.4-0.5c0.1,0,0.3,0.1,0.4,0.1c1.1,0.7,2.3-0.9,3.5-0.2v0.1c1.3,0.1,2.8,0,4.2-0.2
		c2.1-0.3,4.1,0.4,6.1,0.4c1.2,0.4,2.5,0.1,3.7,0.1c0.2,0,0.4,0,0.6,0c0.7,0.1,1.4-0.2,2,0.1c0,0,0.1,0,0.1,0.1c0.5,0,1,0,1.5,0
		c0.1,0,0.2,0,0.3,0c1.3-0.2,2.6-0.2,3.9-0.1c2.8,0.2,5.6-0.3,8.3,0c2.8-0.1,5.6-0.5,8.4-0.1c0.8,0.1,1.6,0.3,2,0.7
		c2.4,2.1,6.4,1.3,9.3,2.3c2.6,0.8,5.5,0.4,8.1,1.1c1.5-0.2,2.8,0.5,4.2,0.3c0.3,0,0.6,0,0.7-0.2c0.4-1,1.8-1,2.8-1.4
		c0.4-0.3,0.8-0.3,1.3,0c0.1,0,0.2,0,0.3,0c0.5-0.4,1.2-0.2,1.8-0.2c2,0.1,3.5-1,5.3-1.2c0.1,0,0.2,0,0.3,0c0.2-0.2,0.5-0.2,0.8-0.2
		c3-0.2,5.9-0.2,8.8,0.3c3.1,0.2,6.2,0,9.2,0c0.1,0,0.2,0,0.3,0c1.4-0.3,3-0.3,4.4-0.5c0.4-0.1,0.8-0.1,1.1,0.2c0.2,0,0.4,0,0.6,0
		c0.1-0.2,0.4-0.2,0.6-0.2c0.2-0.2,0.3-0.5,0.6-0.7c0.1-0.1,0.2-0.1,0.3-0.2s0.2-0.1,0.3-0.2c0.1,0,0.2,0,0.3,0
		c1.5-0.7,3-0.8,4.8-0.6c1.7,0.2,3.4,0.1,5.1-0.2c0.3,0,0.5-0.1,0.7,0.1c0.3,0,0.6,0,0.9,0c0.2,0,0.4,0,0.6,0
		c0.9-0.4,1.9-0.4,2.8-0.1c4.9-0.1,9.7-0.1,14.6-0.3c0.6,0,1.2,0,1.8-0.3c0.1-0.1,0.3-0.1,0.4-0.1c1.7,0,3.4-0.5,5.2,0.1
		c0.2,0.1,0.4,0.2,0.6,0.1c1.8-0.4,3.3,0.3,4.9,0.5c1.5,0.2,2.9,0.3,4.4,0.6c0.5,0.1,0.9,0,1.3-0.2c0.8-0.6,1.9-0.7,3-0.7
		c2.1,0.1,4-0.4,5.9-0.7c1.3-0.3,2.2,0.2,3.4,0.5c0.7,0.1,1.4,0.2,1.4,0.9c0,0.3,0.6,0.6,1.2,0.6c1.2,0,2.4,0,3.5,0.1
		c0.7,0.1,1.3-0.3,1.9-0.4c1.3-0.3,2.6-0.4,3.6-1.1c0.2-0.2,0.6-0.2,0.9-0.1c1.4,0.3,2.8-0.2,4.3-0.1c4.8,0.1,9.7,0.2,14.5-0.3
		c0.1,0,0.3-0.1,0.5-0.1c2.7,0.5,5.3-0.5,8-0.4c1.1,0,2.2-0.3,3.3-0.1c0.4,0.1,0.9,0.1,1.2,0.4c0.1,0.1,0.4,0.2,0.5,0.2
		c1.5-0.1,2.9,0.3,4.4,0c0.5-0.1,1-0.1,1.5,0s1,0.1,1.5-0.1c0.8-0.4,1.4-0.2,2.1,0.1c0.9,0,1.8,0,2.7-0.2c1.2-0.3,2.5,0.1,3.8,0l0,0
		c0-0.2,0-0.4,0-0.6c-0.2-0.2-0.2-0.6-0.3-0.9c-0.1-0.1-0.1-0.2-0.2-0.3c-0.3-0.2-0.5-0.5-0.7-0.9c0-0.1,0-0.2,0-0.3
		c-0.1-0.1-0.1-0.2,0-0.3c0.1-0.1,0.1-0.2,0.2-0.3c0-1.2-0.1-2.3-0.4-3.4c-0.3-1.1,0.3-2.2,0.1-3.3c0.6-1.5,0.6-3.3,1.2-4.7
		c-0.1-3.5-0.7-7.3,0.3-10.7c0.7-2,0.6-4.1,0.1-6.1c-0.1-0.5-0.2-1,0.1-1.5c0.1-0.1,0.1-0.2,0.2-0.3c0-0.1,0-0.2,0-0.3
		c0.4-2.5-0.1-4.8-0.6-7c-0.4-1.5,0-2.6,0.4-3.9c0.8-2.4-0.9-4.9,0-7.3c0-0.1,0-0.2,0-0.3c0.1-0.1,0.1-0.2,0.2-0.3
		c0-0.3,0-0.6,0-0.9c-0.1-0.3-0.2-0.6-0.2-0.9c-0.3-0.2-0.2-0.6-0.2-0.9c0-0.1,0-0.2,0-0.3c0-0.3,0-0.5,0.2-0.6c0-0.1,0-0.2,0-0.3
		c0-0.4,0.1-0.6,0.2-0.9c0-0.2,0-0.4,0-0.6c0-0.7-0.2-1.5,0.2-2.2c0-1.3,0.2-2.4,0.7-3.4c0.3-0.6,0.3-1.1-0.1-1.6
		c-1.7-1.9-2.2-4.5-2.7-7.1c-0.4-2.2,0.2-4.3-0.5-6.2c-0.3-1.3-0.8-2.6-0.2-4c0.2-0.4,0-0.7-0.2-0.9c-0.6-0.4-0.6-1-0.4-1.8v-0.1
		c0.8-2.3-0.5-5,0.7-7.2c0.3-0.6,0.3-1.4,0.3-2.1c0-0.5-0.2-1.1,0.2-1.5c0.1-0.1,0.1-0.2,0.2-0.3c0.1-0.1,0.1-0.2,0.2-0.3
		c0-0.1,0-0.2,0-0.3c0.1-0.1,0.1-0.2,0.2-0.3c0-0.1,0-0.2,0-0.3c-0.3-0.7-0.3-1.4-0.7-2c-0.3-0.5-0.2-1-0.1-1.6c0.2-1,0.3-2-0.2-2.9
		c0-0.1,0-0.2,0-0.3c0.6-2.4,0.3-5,0.3-7.4c0-0.1,0-0.2,0-0.3c0-0.4-0.1-0.9,0.2-1.3c0-0.1,0-0.2,0-0.3c-0.3-0.3-0.3-0.6,0-1
		c0-0.3,0-0.6,0-0.9c0.4-1.8,0.2-3.8,0.5-5.6c-0.8-2.5,0.7-4.7,0.5-7.1c-0.3-0.5-0.3-1.2-0.2-1.8c0.2-1.1-0.4-2.3-0.5-3.4
		c0-0.1,0.1-0.3,0.1-0.4c0.7-1.1-0.9-2.3-0.2-3.5h0.1c0.1-1.3,0-2.8-0.2-4.2c-0.3-2.1,0.4-4.1,0.4-6.1c0.4-1.2,0.1-2.5,0.1-3.7
		c0-0.2,0-0.4,0-0.6c0.1-0.7-0.2-1.4,0.1-2c0,0,0-0.1,0.1-0.1c0-0.5,0-1,0-1.5c0-0.1,0-0.2,0-0.3c-0.2-1.3-0.2-2.6-0.1-3.9
		c0.2-2.8-0.3-5.6,0-8.3c-0.1-2.8-0.5-5.6-0.1-8.4c0.1-0.8,0.3-1.6,0.7-2c2.1-2.4,1.3-6.4,2.3-9.3c0.8-2.6,0.4-5.5,1.1-8.1
		C661.4,161.3,662.1,160,661.9,158.7L661.9,158.7z"/>
</g>
</svg>
