<svg xmlns="http://www.w3.org/2000/svg" viewBox="0 0 463.2 382.8" preserveAspectRatio="none">
<g id="borda-full">
	<path d="M463.2,165.5c0-0.3,0-0.6-0.2-0.7c-0.8-0.6-1.2-3-1-4.2c-0.1-2.7-0.6-5.4-1-8c-0.4-8.5,0.3-17.3-0.2-25.9
		c0-0.2,0-0.4,0-0.6c-0.1-0.1-0.1-0.4-0.2-0.6c-2.5-4.9-0.8-11.6-1.3-17.1c0.3-9.6-1.3-19.2,0-28.6c1.4-6.5-2.4-14.1,0.3-20.2
		c1.3-3.4,0-8.1-0.6-11.6c0.1-14.6-0.8-29.2-0.2-43.5c-0.5-0.1-1.1,0.2-1.6-0.2c-5.3,0.1-10.5,0.5-15.8,0.3
		c-1.8-0.6-2.7-2.3-4.7-2.3c-2.9-0.7-5.9-1.3-8.9-1.9c-1.1,0.2-2.5-0.9-3.4-0.1c-0.1,0.8-2.3,1.9-2.8,1.4c-0.1,0-0.1,0-0.2,0
		c-0.4,0.4-0.8,0.2-1.2,0.2c-1.5-0.1-2.5,1.1-3.9,1.2c-3,1-6.2-0.3-9.3-0.1c-2.7-0.3-5.5,0.8-8,0.5c-0.1,0-0.3,0-0.4,0
		c-0.1,0.2-0.2,0.2-0.4,0.2c-0.2,0.5-0.5,0.8-0.8,1.1c-0.1,0-0.1,0-0.2,0c-2.2,1.3-5,0.3-7.4,0.7c-4.7,0.6-9.8-0.3-14.5,0.7
		c-1.2,0.2-2.6,0.6-3.9,0.1c-2.6,0.2-5.4-1.7-7.8-1C363,5.9,362.3,6,361.5,6c-1.9-0.4-3.8,1.3-5.7,0.5c-0.6-0.5-1.7-0.2-1.8-1.2
		c0-0.3-0.4-0.6-0.8-0.6c-2.2-0.1-4.5-0.1-6.3,1.4c-4,0.4-8.2,0-12.3,0.3c-2.4,0.1-4.9,0.4-7.3,0.7c-1,0-2.3,0.5-3.2-0.3
		c-1.7-0.5-3.8-0.3-5.6-0.2c-0.5,0.4-1,0.2-1.5-0.1c-3.4,0.6-7-0.2-10.3,0.5c-0.3,0.2-0.7,0.2-1,0.1c-0.6-0.1-0.8,0.9-1.4,0.6
		c-0.7-0.7-1.6,0.4-2.1-0.3c-0.2-0.4-0.6-0.4-1-0.5c-2.6-0.2-4.5-2.3-6.9-2.8c-1.6-0.1-3.4,0.5-4.8-0.3c-0.8-0.6-1.5-0.6-2.5-0.5
		c-3.4,0.7-7,0.4-10.4,0.2c-1.1-0.6-2.4-0.1-3.6-0.2c-2.7-0.9-3.4-1.9-6.3-0.6c-0.6,0.5-1.4,0.1-2-0.4l0,0c-0.2-0.3-0.5-0.5-0.9-0.4
		c-0.1,0.2-0.4,0.2-0.6,0.2c-0.1,0.1-0.2,0.1-0.2,0.2c-0.2,0-0.4,0-0.6,0c-0.3,0.4-0.9,0.2-1.3,0.3c-0.6,0.5-1.4,0.1-2.2,0.3
		c-0.1,0.1-0.2,0.1-0.2,0.2c-0.1,0-0.1,0-0.2,0c-0.1,0.1-0.2,0.1-0.2,0.2c-0.1,0-0.3,0-0.4,0c-0.2,0.2-0.4,0.2-0.6,0.3
		c-0.3,0.3-0.5,0.9-1,0.9c-0.1,0.1-0.2,0.1-0.2,0l0,0c-0.1-0.1-0.1-0.1-0.2-0.2c-1.6,0.1-3.1,0.6-4.7,0.3c-1-0.6-2.3-0.6-3.3-1.2
		c-4.1,1.1-7.9-1.3-11.8-0.4c-0.5,0.2-0.9,0.1-1.2-0.2c-2.8-0.9-5.4,1.7-7.9,0.2c-1.8-0.8-3.5,0.9-5.3,0c-0.1-0.1-0.2-0.1-0.2-0.2
		c-1-0.1-1.4,0.2-1.8,0.2c-0.3,0.3-1,0.4-1.3,0c-0.9-0.3-1.9,0.1-2.8-0.3c-1.3,0.4-2.5-1.6-3.5-0.6c-1.2,1.6-3.1,2.2-5,2.7
		c-1.5,0.4-3-0.2-4.4,0.5c-0.9,0.3-1.8,0.8-2.8,0.2c-0.8-0.3-0.8,1.3-1.9,0.6c-1.7-0.8-3.6,0.5-5.2-0.7C192,4.8,191,5.5,190.3,5l0,0
		c-0.1-0.1-0.3-0.3-0.5-0.4c-0.1,0-0.1,0-0.2,0c-0.1-0.1-0.2-0.1-0.2-0.2c-0.1,0-0.1,0-0.2,0c-0.5,0.3-1,0.3-1.4,0.7
		c-1,0.6-2.1-0.7-3.1,0.3c-2.1-0.7-4.5,0.1-6.5-0.4c-0.1,0-0.1,0-0.2,0c-0.2,0.3-0.4,0.3-0.7,0c-1.5-0.3-3-0.3-4.5-0.5
		c-1.8,0.8-3.3-0.7-5-0.5c-0.4,0.3-0.8,0.3-1.2,0.2c-0.9-0.3-1.9,0.8-2.7,0.4c-0.7-0.7-1.6,0.9-2.4,0.2l0,0
		c-2.4,0.1-4.8,0.3-7.2-0.2c-1.5-0.6-3.1,0.3-4.6-0.3c-5.3,0.1-10.5,0.5-15.8,0.3c-1.8-0.6-2.7-2.4-4.8-2.3
		c-2.9-0.7-5.9-1.3-8.9-1.9c-1.1,0.2-2.5-0.9-3.4-0.1c-0.1,0.8-2.3,1.9-2.8,1.4c-0.1,0-0.1,0-0.2,0c-0.4,0.4-0.8,0.2-1.2,0.2
		c-1.5-0.1-2.5,1.1-3.9,1.2c-3,1-6.2-0.3-9.3-0.1c-2.7-0.3-5.5,0.8-8,0.5c-0.1,0-0.3,0-0.4,0c-0.1,0.2-0.2,0.2-0.4,0.2
		c-0.2,0.4-0.5,0.8-0.8,1.1c-0.1,0-0.1,0-0.2,0c-2.2,1.3-5,0.3-7.4,0.7c-4.7,0.6-9.8-0.3-14.5,0.7c-1.2,0.2-2.6,0.6-3.9,0.1
		c-2.6,0.2-5.4-1.7-7.8-1C55.4,5.9,54.6,6,53.9,6c-1.9-0.4-3.8,1.3-5.7,0.5c-0.6-0.5-1.7-0.2-1.8-1.2c0-0.3-0.4-0.6-0.8-0.6
		c-2.2-0.1-4.5-0.1-6.3,1.4c-4,0.4-8.2,0-12.3,0.3c-2.4,0.1-4.9,0.4-7.3,0.7c-1,0-2.3,0.5-3.2-0.3c-1.7-0.5-3.8-0.3-5.6-0.2
		c-0.5,0.4-1,0.2-1.5-0.1C6.5,6.7,3.6,7,0.8,6.7C0.4,14.1,1.3,21.5,1,28.9l0,0c-0.7,8.7-0.1,17.6,0.2,26.4
		c-0.3,5.2,0.6,10.4-0.5,15.5c1.2,4,0.8,8.5,1.2,12.7c-2.5,19.3-1.7,66.8-1.2,86.6c-0.8,8.8-1.1,52.4,0.3,60.4
		c0.9,2.7,1.1,6.5,1.8,9.3C3,243,2,246,2.2,249.3c-0.2,12,0.3,23.7-0.1,35.8c-0.4,6.5-0.2,13-0.3,19.6c-0.8,3.2-1.3,6.9-1,10.4
		c0,1.6,1.1,1.1,1,2.7c0.6,4.1,0,8.8-0.6,12.8c1.3,15.5-0.1,31.4,0.2,47c2.4,0.8,4.9,0.3,7.2,0.7c5.3-0.1,10.5-0.5,15.8-0.3
		c1.8,0.6,2.7,2.4,4.7,2.4c2.9,0.7,5.9,1.3,8.9,2c1.1-0.2,2.5,0.9,3.4,0.1c0.1-0.9,2.3-2,2.8-1.5c0.1,0,0.1,0,0.2,0
		c0.4-0.4,0.8-0.2,1.2-0.2c1.5,0.1,2.5-1.2,3.9-1.3c3-1.1,6.2,0.3,9.3,0.1c2.7,0.3,5.5-0.8,8-0.5c0.1,0,0.3,0,0.4,0
		c0.1-0.2,0.2-0.2,0.4-0.2c0.2-0.5,0.5-0.8,0.8-1.2c0.1,0,0.1,0,0.2,0c2.2-1.3,5-0.3,7.4-0.7c4.6-0.6,9.8,0.3,14.5-0.8
		c1.2-0.3,2.6-0.6,3.9-0.1c2.6-0.2,5.4,1.8,7.8,1.1c0.6-0.6,1.3-0.8,2.1-0.7c1.9,0.4,3.8-1.3,5.7-0.6c0.6,0.5,1.7,0.2,1.8,1.3
		c0,0.3,0.4,0.6,0.8,0.6c2.2,0.2,4.6,0.1,6.3-1.4c4-0.4,8.2,0,12.3-0.3c2.4-0.1,4.9-0.4,7.3-0.7c1,0,2.3-0.5,3.2,0.3
		c1.3,0.6,3.1,0,4.5,0.3c0.9,0.3,1.7-0.9,2.5,0c3.8-0.5,7.7,0,11.4-0.6c0.6,0.1,0.8-1,1.4-0.6c0.7,0.8,1.6-0.4,2.1,0.4
		c1.5,1.3,4,0.9,5.5,2.5c1.8,1.9,4.4,0.5,6.5,1.2c1.1,0.2,1.9,1.1,3.2,0.7c3.4-0.8,7-0.4,10.4-0.2c1.1,0.6,2.4,0.1,3.6,0.2
		c2.8,1,3.3,2,6.3,0.6c0.6-0.5,1.5-0.1,2,0.4l0,0c0.2,0.3,0.5,0.5,0.9,0.4c0.1-0.2,0.4-0.2,0.6-0.3c0.1-0.1,0.2-0.1,0.2-0.2
		c0.2,0,0.4,0,0.6,0c0.3-0.4,0.9-0.2,1.3-0.3c0.6-0.5,1.4-0.1,2.2-0.3c0.1-0.1,0.2-0.1,0.2-0.2c0.1,0,0.1,0,0.2,0
		c0.1-0.1,0.2-0.1,0.2-0.2c0.1,0,0.3,0,0.4,0c0.2-0.2,0.4-0.2,0.6-0.3c0.3-0.3,0.5-0.9,1.1-0.9c0.1-0.1,0.2-0.1,0.2,0l0,0
		c0.1,0.1,0.1,0.1,0.2,0.2c1.6-0.1,3.1-0.7,4.7-0.4c1,0.6,2.3,0.6,3.3,1.2c4.1-1.2,7.9,1.4,11.8,0.5c0.5-0.2,0.9-0.1,1.2,0.2
		c2.8,1,5.4-1.8,7.9-0.2c1.8,0.8,3.5-0.9,5.3,0c0.1,0.1,0.2,0.1,0.2,0.2c0.5,0.1,0.8-0.2,1.3-0.3c0.3-0.3,1-0.4,1.3,0
		c0.9,0.3,1.9-0.1,2.8,0.4c0.9,0,1.7,0.2,2.4,0.8c1,0.8,1.4-0.9,2.2-1.2c1.2-0.7,2.5-1.4,3.9-1.7c1.5-0.4,3,0.2,4.4-0.6
		c0.9-0.3,1.8-0.8,2.8-0.3c0.8,0.3,0.8-1.4,1.9-0.7c1.7,0.9,3.6-0.5,5.2,0.7c0.8,0.6,1.8-0.1,2.5,0.5l0,0c0.1,0.1,0.3,0.3,0.5,0.4
		c0.2,0,0.3,0.1,0.4,0.2c0.1,0,0.1,0,0.2,0c2.6-1.9,2.7,0.1,4.5-1c2.1,0.7,4.5-0.1,6.5,0.4c0.1,0,0.1,0,0.2,0c0.2-0.3,0.4-0.3,0.7,0
		c1.5,0.3,3,0.3,4.5,0.5c1.8-0.8,3.3,0.7,5,0.5c0.4-0.3,0.8-0.3,1.2-0.3c0.9,0.3,1.9-0.8,2.7-0.4c0.7,0.8,1.6-0.9,2.4-0.2v0.1
		c2.4-0.1,4.8-0.3,7.2,0.2c1.5,0.6,3.1-0.3,4.6,0.3c5.3-0.1,10.5-0.5,15.8-0.3c1.8,0.6,2.7,2.4,4.7,2.4c2.9,0.7,5.9,1.3,8.9,2
		c1.1-0.2,2.5,0.9,3.4,0.1c0.1-0.9,2.3-2,2.8-1.5c0.1,0,0.1,0,0.2,0c0.4-0.4,0.8-0.2,1.2-0.2c1.5,0.1,2.5-1.2,3.9-1.3
		c3-1.1,6.2,0.3,9.3,0.1c2.7,0.3,5.5-0.8,8-0.5c0.1,0,0.3,0,0.4,0c0.1-0.2,0.2-0.2,0.4-0.2c0.2-0.5,0.5-0.8,0.8-1.2
		c0.1,0,0.1,0,0.2,0c2.2-1.3,5-0.3,7.4-0.7c4.6-0.6,9.8,0.3,14.5-0.8c1.2-0.3,2.6-0.6,3.9-0.1c2.6-0.2,5.4,1.8,7.8,1.1
		c0.6-0.6,1.3-0.8,2.1-0.7c1.9,0.4,3.8-1.3,5.7-0.6c0.6,0.5,1.7,0.2,1.8,1.3c0,0.3,0.4,0.6,0.8,0.6c2.2,0.2,4.6,0.1,6.3-1.4
		c4-0.4,8.2,0,12.3-0.3c2.4-0.1,4.9-0.4,7.3-0.7c1,0,2.3-0.5,3.2,0.3c1.3,0.6,3.1,0,4.5,0.3c0.9,0.3,1.7-0.9,2.5,0
		c1.5-0.1,3-0.4,4.5-0.2l0,0c0-0.2,0-0.4,0-0.6c-0.1-0.9-0.7-1.6-0.8-2.5c-0.3-9.9,1.4-20.2,1-30.2c0.9-4.6-0.9-9.2,0-13.6
		c0.1-3.4-0.1-6.9,0-10.2c-0.2-0.5-0.3-1.5,0-1.9c-0.2-3.1,0.9-6.6,0.7-9.5c-2.7-5.7-1.8-13-2.6-19.1c-1-1.7,0.4-4.1-0.1-6.1
		c0.1-2.7,0.3-5.4,0.9-8c-0.5-5.8-0.5-11.8-0.3-17.7c0.2-8.2,0.8-16.6,0.1-24.8l0,0c0.2-13.7,0.2-27.4,0.1-41.1
		C462.3,182.3,462.5,173.7,463.2,165.5L463.2,165.5z"/>
</g>
</svg>
